<?xml version="1.0" encoding="UTF-8"?>
<svg id="Layer_2" data-name="Layer 2" xmlns="http://www.w3.org/2000/svg" viewBox="0 0 351.21 256">
  <defs>
    <style>
      .cls-1 {
        fill: #fff;
      }
    </style>
  </defs>
  <g id="Layer_1-2" data-name="Layer 1">
    <g id="burger-closed">
      <path class="cls-1" d="M327.18,256c-4.68,0-9.41-1.37-13.56-4.21L10.43,43.79C-.5,36.29-3.29,21.36,4.21,10.43S26.65-3.29,37.58,4.21l303.2,208c10.93,7.5,13.71,22.44,6.21,33.37-4.65,6.78-12.17,10.43-19.81,10.43Z"/>
      <path class="cls-1" d="M24.02,256c-7.65,0-15.16-3.64-19.81-10.43-7.5-10.93-4.72-25.87,6.21-33.37L313.63,4.21c10.93-7.5,25.87-4.72,33.37,6.21,7.5,10.93,4.72,25.87-6.21,33.37L37.58,251.79c-4.15,2.85-8.88,4.21-13.56,4.21Z"/>
    </g>
  </g>
</svg>